<?xml version="1.0" ?>
<!-- Uploaded to: SVG Repo, www.svgrepo.com, Generator: SVG Repo Mixer Tools -->
<svg width="800px" height="800px" viewBox="0 0 64 64" xmlns="http://www.w3.org/2000/svg">
<defs>
<style>.cls-1{fill:#2c3b73;}.cls-2{fill:#f2f2fc;}.cls-3{fill:#4bb9ec;}.cls-4{fill:#fdbf00;}.cls-5{fill:#f03800;}</style>
</defs>
<title/>
<g id="presentation">
<rect class="cls-1" height="6" width="54" x="5" y="7"/>
<path class="cls-2" d="M9,47.27a13.447,13.447,0,0,1,3.354-1.624,7,7,0,1,1,8.272,0A13.507,13.507,0,0,1,26.078,49H55V15H9ZM37,46a1,1,0,0,1-1,1H32a1,1,0,0,1-1-1V38a1,1,0,0,1,1-1h4a1,1,0,0,1,1,1Zm8,0a1,1,0,0,1-1,1H40a1,1,0,0,1-1-1V34a1,1,0,0,1,1-1h4a1,1,0,0,1,1,1Zm8,0a1,1,0,0,1-1,1H48a1,1,0,0,1-1-1V30a1,1,0,0,1,1-1h4a1,1,0,0,1,1,1ZM36,17H52a1,1,0,0,1,0,2H36a1,1,0,0,1,0-2Zm0,4H52a1,1,0,0,1,0,2H36a1,1,0,0,1,0-2Zm0,4H52a1,1,0,0,1,0,2H36a1,1,0,0,1,0-2ZM11,18a1,1,0,0,1,1-1H32a1,1,0,0,1,1,1V30a1,1,0,0,1-1,1H12a1,1,0,0,1-1-1Z"/>
<rect class="cls-3" height="10" width="18" x="13" y="19"/>
<path d="M12,31H32a1,1,0,0,0,1-1V18a1,1,0,0,0-1-1H12a1,1,0,0,0-1,1V30A1,1,0,0,0,12,31Zm1-12H31V29H13Z"/>
<rect class="cls-3" height="6" width="2" x="33" y="39"/>
<path d="M36,37H32a1,1,0,0,0-1,1v8a1,1,0,0,0,1,1h4a1,1,0,0,0,1-1V38A1,1,0,0,0,36,37Zm-1,8H33V39h2Z"/>
<rect class="cls-4" height="10" width="2" x="41" y="35"/>
<path d="M44,33H40a1,1,0,0,0-1,1V46a1,1,0,0,0,1,1h4a1,1,0,0,0,1-1V34A1,1,0,0,0,44,33ZM43,45H41V35h2Z"/>
<rect class="cls-5" height="14" width="2" x="49" y="31"/>
<path d="M52,29H48a1,1,0,0,0-1,1V46a1,1,0,0,0,1,1h4a1,1,0,0,0,1-1V30A1,1,0,0,0,52,29ZM51,45H49V31h2Z"/>
<circle class="cls-4" cx="16.49" cy="40" r="5"/>
<path class="cls-4" d="M16.49,47a11.509,11.509,0,0,0-11.4,10H27.893A11.508,11.508,0,0,0,16.49,47Z"/>
<path d="M60,5H4A1,1,0,0,0,3,6v8a1,1,0,0,0,1,1H7V48.9a13.457,13.457,0,0,0-4,9.058A1,1,0,0,0,4,59H28.98a1,1,0,0,0,1-1.039A13.421,13.421,0,0,0,27.714,51H56a1,1,0,0,0,1-1V15h3a1,1,0,0,0,1-1V6A1,1,0,0,0,60,5Zm-1,8H5V7H59ZM5.087,57a11.5,11.5,0,0,1,22.806,0Zm11.4-12a5,5,0,1,1,5-5A5,5,0,0,1,16.49,45ZM55,49H26.078a13.507,13.507,0,0,0-5.452-3.354,7,7,0,1,0-8.272,0A13.447,13.447,0,0,0,9,47.27V15H55Z"/>
<path d="M36,19H52a1,1,0,0,0,0-2H36a1,1,0,0,0,0,2Z"/>
<path d="M36,23H52a1,1,0,0,0,0-2H36a1,1,0,0,0,0,2Z"/>
<path d="M36,27H52a1,1,0,0,0,0-2H36a1,1,0,0,0,0,2Z"/>
</g>
</svg>